<svg xmlns="http://www.w3.org/2000/svg" data-name="Layer 1" viewBox="0 0 613 701"><path fill="#f2f2f2" d="M294 657v-17h-1c-8-5-18 3-15 12s4 18 9 25a34 34 0 0 0 25 16l11 7a57 57 0 0 0-13-47 55 55 0 0 0-10-9c-2 7-6 13-6 13Z"/><path fill="#e6e6e6" d="M199 479c-20-21-50-33-81-33h-2a116 116 0 0 1-58-16l-2-1 1-2a113 113 0 0 0 20-28 34 34 0 0 1-27 9 35 35 0 0 1-26-17c-11-17-24-43-24-62a117 117 0 0 1 38-86 73 73 0 0 0 24-54v-2a165 165 0 0 1 5-39v-2h2a111 111 0 0 0 26-2 88 88 0 0 1-24-6l-1-1v-1c34-21 111-10 156-113 36-82 164 74 164 164 0 10-9 22-2 28 74 66 23 108 7 151-4 10 4 21 4 32v9l-3-2a82 82 0 0 1-13-11 71 71 0 0 1-2 61c-8 15-16 25-23 32a116 116 0 0 1-159-8Z"/><path fill="#3f3d56" d="M323 699a2 2 0 0 0 2-2c0-1 9-63 1-147-7-77-31-188-100-279a2 2 0 1 0-3 2c68 91 92 201 99 277 7 83-1 146-1 146a2 2 0 0 0 2 3Z"/><path fill="#3f3d56" d="M266 399a2 2 0 0 0 1-4s-25-18-63-32c-36-13-89-24-144-7a2 2 0 1 0 1 4c54-17 107-6 141 7 38 14 63 32 63 32a2 2 0 0 0 1 0Zm96-238a2 2 0 0 0-4-2s-20 24-37 61c-15 34-31 87-17 143a2 2 0 1 0 4-1c-13-55 2-106 17-140 16-36 36-60 36-60a2 2 0 0 0 1-1Z"/><path fill="#2f2e41" d="M359 269c2 14 12 26 26 26a26 26 0 0 0 26-26c0-15-12-25-26-26-15-2-28 7-26 26Z"/><path fill="#ffb6b6" d="M397 687h10l5-38h-15v38z"/><path fill="#2f2e41" d="M397 698h30v-1a12 12 0 0 0-12-12l-5-4-11 4h-2Z"/><path fill="#ffb6b6" d="M358 687h10l5-38h-15v38z"/><path fill="#2f2e41" d="M358 698h30v-1a12 12 0 0 0-12-12l-5-4-11 4h-2Zm73-250 7 24-8 102s4 6 1 6-7 2-4 5-6 18-6 18l-12 72h-15s-7-4-3-9 7-4 3-8-4-3-4-6-4-41 6-55l-3-60-7 59-14 77h-14s-7-6-7-11 4-5 1-8-3-46 6-70c0 0 5-13 0-18s0-10 0-10 8-3 0-11 0-68 0-68-9-24 0-33 73 4 73 4Z"/><path fill="#ffb6b6" d="m307 489 12-30 10 6-6 30a11 11 0 1 1-16-6Zm209-238-19 26-8-7 12-29a11 11 0 1 1 15 10Z"/><path fill="#dc1a21" d="M433 451c12 19-50 43-73 33-5-1-19-7-9-15s-1-9-1-14c-1-3 2-11-1-10s-6-5 0-7 0-4 0-6c1-21 17-54 17-54l-29 74s0 13-3 9-4 9-4 9-5 4-2 6-4 8-4 8l-15-1s0-11 3-14 1-6 1-6 7-6 3-11c-6-6 15-112 22-111a28 28 0 0 1 21-22l16-4 3-12h23l4 8 18 8c3-5 6-10 20-12 0 0 36-33 35-36s3-8 3-8 5-2 3-3 2-3 2-3 5-1 3-3 7-2 7-2l13 10-3 4s2 6 0 4-3 4-3 4-1 7-7 9-11 22-11 22c-14 19-32 34-52 44 8 9 0 102 0 102Z"/><circle cx="387.9" cy="273.1" r="23.1" fill="#ffb6b6"/><path fill="#2f2e41" d="m364 276 4 12c-1 0-8-21-1-22l11-3v1c3 2 7 1 11-1 3-1 8-3 11 0 2 1 3 4 4 6s4 4 6 3c2 0 3-2 3-4l-2-6c3-5 1-9-5-11l-6-1a17 17 0 0 1 4-4 9 9 0 0 0-3-4l-6-1-13 1c-3 0-6 0-9 2-3 1-5 5-7 8-4 8-3 15-2 24Z"/><path fill="#cacaca" d="m268 700 227 1a1 1 0 1 0 0-3H268a1 1 0 0 0 0 2Z"/><ellipse cx="472" cy="695.1" fill="#e6e6e6" rx="5.3" ry="7.6" transform="rotate(-82 268 815)"/><ellipse cx="521.2" cy="690.3" fill="#3f3d56" rx="5.3" ry="7.6" transform="rotate(-82 317 810)"/><ellipse cx="458.5" cy="655.3" fill="#ff6584" rx="5.3" ry="7.6" transform="rotate(-82 254 775)"/><ellipse cx="441.3" cy="640" fill="#e6e6e6" rx="4.8" ry="3.3" transform="rotate(-90 244 738)"/><ellipse cx="434.1" cy="609.7" fill="#3f3d56" rx="4.8" ry="3.3" transform="rotate(-90 237 708)"/><ellipse cx="490.4" cy="663.1" fill="#e6e6e6" rx="4.8" ry="3.3" transform="rotate(-90 294 761)"/><ellipse cx="466.7" cy="675" fill="#ff6584" rx="4.8" ry="3.3" transform="rotate(-90 270 773)"/><ellipse cx="499.7" cy="696.9" fill="#3f3d56" rx="4.8" ry="3.3" transform="rotate(-90 303 795)"/><ellipse cx="850" cy="541.1" fill="#e6e6e6" rx="5.3" ry="7.6" transform="rotate(-82 646 661)"/><ellipse cx="899.2" cy="536.3" fill="#3f3d56" rx="5.3" ry="7.6" transform="rotate(-82 695 656)"/><ellipse cx="836.5" cy="501.3" fill="#ff6584" rx="5.3" ry="7.6" transform="rotate(-82 632 621)"/><ellipse cx="819.3" cy="486" fill="#e6e6e6" rx="4.8" ry="3.3" transform="rotate(-90 622 584)"/><ellipse cx="812.1" cy="455.7" fill="#3f3d56" rx="4.8" ry="3.3" transform="rotate(-90 615 554)"/><ellipse cx="868.4" cy="509.1" fill="#e6e6e6" rx="4.8" ry="3.3" transform="rotate(-90 672 607)"/><ellipse cx="844.7" cy="521" fill="#ff6584" rx="4.8" ry="3.3" transform="rotate(-90 648 619)"/><ellipse cx="877.7" cy="542.9" fill="#3f3d56" rx="4.8" ry="3.3" transform="rotate(-90 681 641)"/><ellipse cx="667" cy="256.1" fill="#fff" rx="5.3" ry="7.6" transform="rotate(-82 463 376)"/><ellipse cx="716.2" cy="251.3" fill="#3f3d56" rx="5.3" ry="7.6" transform="rotate(-82 512 371)"/><ellipse cx="653.5" cy="216.3" fill="#ff6584" rx="5.3" ry="7.6" transform="rotate(-82 449 336)"/><ellipse cx="636.3" cy="201" fill="#e6e6e6" rx="4.8" ry="3.3" transform="rotate(-90 439 299)"/><ellipse cx="629.1" cy="170.7" fill="#3f3d56" rx="4.8" ry="3.3" transform="rotate(-90 432 269)"/><ellipse cx="685.4" cy="224.1" fill="#e6e6e6" rx="4.8" ry="3.3" transform="rotate(-90 489 322)"/><ellipse cx="661.7" cy="236" fill="#ff6584" rx="4.8" ry="3.3" transform="rotate(-90 465 334)"/><ellipse cx="694.7" cy="257.9" fill="#3f3d56" rx="4.8" ry="3.3" transform="rotate(-90 498 356)"/></svg>