<svg xmlns="http://www.w3.org/2000/svg" viewBox="0 0 835 526"><path fill="#ffb6b6" d="M451 300c11-4 23-1 25 6 3 7-4 16-16 21-4 1-9 2-14 1l-49 17-7-23 49-14c3-4 7-6 12-8Z"/><path fill="#e6e6e6" d="m433 335-96 44-1 1-78-48a24 24 0 0 1-1-42c9-6 21-5 29 1l58 47 82-31 7 28Z"/><path fill="#3f3d56" d="m0 486 1 1h786l2-1-2-1H1l-1 1Z"/><g fill="#ffb6b6"><path d="m309 300 7-41-44-17-7 61 44-3z"/><circle cx="298" cy="228" r="44.5"/></g><g fill="#2f2e41"><path d="m254 518 9 3c50 18 108-20 141-48 17-13 27-25 27-25l33 17 22 11 4 2 13 6 20 10 2 2h2l29 9 6-21-5-5c-22-20-101-88-122-93-9-3-29 5-50 15-33 16-68 39-68 39l-14-20-48 10-18 5-11 2s-35 53 28 81Z"/><path d="M554 481s7-7 11-4l8 7s31 2 32 17-21 20-21 20-72 6-72-4 11-23 11-23 34-6 31-14Z"/></g><g fill="#2f2e41"><path d="M254 518c54-20 100-70 100-70l50 25 42 21 2 2 31 9 6-21-5-5a2371 2371 0 0 0-95-78c-33 16-68 39-68 39l-14-20-48 10-15 10-3-5-11 2s-35 53 28 81Z"/><path d="M477 481s7-7 11-4l8 7s31 2 32 17-21 20-21 20-72 6-72-4 11-23 11-23 34-6 31-14Z"/></g><path fill="#e6e6e6" d="M231 360c2-29 14-57 33-79l1-1 50 11 11 32c7 21 6 44-4 64l-13 24 4 22-87 4-1 1 6-78Z"/><path fill="#3f3d56" d="M679 91h36v1c0 9-7 16-16 16h-4c-9 0-16-7-16-16v-1Z"/><path fill="#3f3d56" d="m796 71-63-14-1-4 30-13c3-6 8-3 8-3s10 2 8-8-16-3-16-3l-36 11-6-14c-2-4-6-7-10-7h-21c-5 0-9 3-11 7l-7 14-36-11s-14-7-16 3 8 8 8 8 5-3 8 3l29 12-1 2-1 4-61 13c-5 1-8 6-6 11l2 3c2 5 8 7 12 4 2-1 3-3 3-5l51-12c3 13 15 24 30 24h10c15 0 27-11 30-25l52 13c0 2 1 4 3 5 4 3 10 1 12-4l2-3c2-5-1-10-6-11Z"/><path fill="#ff0005" d="M766 15 735 0s-3 0-1 2l35 17-3-4Zm9 7s1 6 6 9 35 12 35 12l4-3-32-18-11-1-2 1Zm20 51s6 2 11 0 29-23 29-23v-5l-33 17-6 9-1 2Z"/><path fill="#ff0005" d="M798 74s-5-3-11-3c-6 1-34 12-34 12l-2 5 36-6 10-6 1-2ZM631 15l31-15s3 0 1 2l-35 17 3-4Zm-9 7s-1 6-6 9-35 12-35 12l-4-3 32-18 11-1 2 1Zm-20 51s-6 2-12 0-28-23-28-23v-5l32 17 7 9 1 2Z"/><path fill="#ff0005" d="M599 74s5-3 11-3 34 12 34 12l2 5-37-6-9-6-1-2Z"/><circle cx="770.8" cy="23.1" r="8.6" fill="#3f3d56"/><circle cx="625" cy="23.9" r="8.6" fill="#3f3d56"/><path fill="#2f2e41" d="m432 377-1-90c0-4 3-8 8-9l22-6a7 7 0 0 1 9 7l1 96a6 6 0 0 1-7 6h-28c-2 0-4-2-4-4Z"/><path fill="#ff0005" d="M440 279h2v3l2 2 9-2 2-3v-3l4-1c3-1 6 1 6 4v94c0 3-3 7-7 7h-21c-2 0-4-2-4-5l-1-85c0-5 3-9 8-11Z"/><path fill="#ffb6b6" d="M470 340c12-2 23 2 24 10 2 7-6 15-18 18-5 1-10 1-15-1l-51 10-4-24 51-7c4-3 8-5 13-6Z"/><path fill="#e6e6e6" d="M275 344a24 24 0 0 1 5-41c9-5 21-2 28 5l51 54 85-18 4 28-103 31-70-59Z"/><path fill="#2f2e41" d="M324 186c8 7 14 16 15 26 2 7 0 16-6 25-9 10-11 31-10 46 0 10-8 17-18 16-20-2-30 48-45 55-18 8-32 0-32 0s5-56 16-72c7-10 8-47 9-61 1-16 9-30 23-39 12-7 28-11 48 4Z"/></svg>