<svg xmlns="http://www.w3.org/2000/svg" data-name="Layer 1" viewBox="0 0 751 591"><path fill="#cacaca" d="M750 590 1 591a1 1 0 0 1 0-3h749a1 1 0 0 1 0 2Z"/><path fill="#e6e6e6" d="M604 565v-64a5 5 0 0 1 5-5h48a5 5 0 0 1 5 5v64a5 5 0 0 1-5 5h-48a5 5 0 0 1-5-5Z"/><path fill="#fff" d="M607 545v-41a5 5 0 0 1 5-5h42a5 5 0 0 1 4 5v57a5 5 0 0 1-4 5h-26a21 21 0 0 1-21-21Z"/><path fill="#e6e6e6" d="M614 516a5 5 0 0 1 5-5h29a5 5 0 0 1 0 9h-29a5 5 0 0 1-5-4Zm0 14a5 5 0 0 1 5-5h29a5 5 0 0 1 0 9h-29a5 5 0 0 1-5-4Zm0 14a5 5 0 0 1 5-5h29a5 5 0 0 1 0 9h-29a5 5 0 0 1-5-4Z"/><path fill="#ccc" d="M613 231c-19 30-37 89-62 92-34 2-62-58-62-92a62 62 0 0 1 62-62c34 0 80 33 62 62Zm-54 102a44 44 0 0 0-44 45l27 135v62a13 13 0 0 0-10 12h24v-74h16v62a13 13 0 0 0-11 12h25v-74l18-135a44 44 0 0 0-45-45Z"/><path fill="#ccc" d="M432 368c-3-3-9-6-16-6-11 0-19 6-19 12s8 11 19 11a26 26 0 0 0 13-3l105 5 1-14Zm165 113c-2 4-3 10-2 17 3 10 10 17 16 15 6-1 9-11 7-21a26 26 0 0 0-7-12l-20-103-14 2Z"/><path fill="#3f3d56" d="M564 205c2-6-3-11-8-13-7-2-14 1-21 2-3 1-7 2-10 0a13 13 0 0 1-7-4c-3-6-3-12-1-18 3-11 14-20 26-22 13-3 27 4 39 9l12 5 11 5c6 3 13 8 10 15 0 2 2 3 3 1 2-6-2-12-6-16a41 41 0 0 0-9-5l-11-4-22-9c-7-3-14-5-21-5a39 39 0 0 0-31 17c-4 6-7 13-5 20 1 6 4 11 9 14 8 3 16-1 24-2 4-1 8-1 11 1s5 5 5 8c-1 2 2 3 2 1ZM410 373a201 201 0 0 1-32-2c-11-2-16-4-16-9l18-137-9-26a9 9 0 0 1 2-8 9 9 0 0 1 7-4l60 1a9 9 0 0 1 8 12l-8 25 18 137c0 5-6 8-18 10a223 223 0 0 1-30 1Zm-30-184a7 7 0 0 0-6 3 7 7 0 0 0-1 7l9 26-18 138c0 1 3 4 15 6a199 199 0 0 0 31 2 221 221 0 0 0 29-1c14-2 17-5 17-8l-18-137 8-26a7 7 0 0 0-6-9l-60-1Z"/><path fill="#ff0005" d="M444 346h-68l11-73v-2l5-31c0-2 2 0 4-1 9-7 18-8 28-1 1 1 4 0 4 2l5 30v3Z" opacity=".5"/><path fill="#ff0005" d="M436 356h-52a9 9 0 0 1-9-11l15-101a3 3 0 0 1 5-2c9 7 19 7 30-1a3 3 0 0 1 2 0 3 3 0 0 1 2 2l16 102a9 9 0 0 1-9 11Z"/><path fill="#fff" d="M386 344h29v2h-29zm0-10h29v2h-29zm0-10h29v2h-29zm0-10h29v2h-29zm0-9h29v2h-29zm48-26a22 22 0 0 1-17 6 27 27 0 0 1-10-3l-10-5c-3-1-7-1-10 1a1 1 0 0 1-2 0l1-2a13 13 0 0 1 10-2c7 2 13 8 21 9a20 20 0 0 0 17-7Z"/><path fill="#2f2e41" d="M228 49c-1 22-18 39-40 40-24 2-45-14-40-40 5-29 18-35 40-40 25-5 41 17 40 40Z"/><path fill="#ffb6b6" d="M308 204a10 10 0 0 1-14-5l-47 9-46-19 12-18 34 17 53-2a10 10 0 0 1 8 18Z"/><path fill="#f2f2f2" d="M165 166s-4 5 7 9c8 4 52 28 65 30a8 8 0 0 0 6 7l7-25c-3-5-6-3-8-2l-14-10-37-24-24 12Z"/><path fill="#f2f2f2" d="m230 110-18-3-32 15-18 249 57-26a42 42 0 0 1 29-2 10 10 0 0 0 13-12Z"/><path fill="#ffb6b6" d="M177 566h14l7-53h-21v53z"/><path fill="#2f2e41" d="M170 589h10l2-9 4 9h26a6 6 0 0 0 4-10l-21-15v-9l-22 1Z"/><path fill="#ffb6b6" d="m109 536 11 9 37-39-17-12-31 42z"/><path fill="#2f2e41" d="m89 551 8 6 7-6-2 10 21 15a6 6 0 0 0 9-6l-8-24 5-8-18-12Z"/><path fill="#35323e" d="M228 323c-1 11-14 49-14 49l-2 23-7 67-7 71c-10 19-29 6-29 6v-12l-2-24c-2-21-5-47-2-55a30 30 0 0 1-1-3c-2-18-8-98 0-106a71 71 0 0 1-20-45l-1-8c0-17 11-37 16-44v-4l67 26 1 2v8Z"/><path fill="#35323e" d="m212 395-7 67-38 41-18 19c-20 8-27-13-27-13l8-9s20-36 34-55l10-11c5-4 21-24 36-45Z"/><path fill="#ff0005" d="M142 240a14 14 0 0 0 1 4v1a14 14 0 0 0 6 7 14 14 0 0 0 3 1l7 1 67 11 3-8-5-13 3-11 1-63c8-15 9-30 0-42l-12-20-8-12-26-1-4 9-7 5c-16 9-22 27-22 46 6 22 2 46-2 71l-4 7a14 14 0 0 0-1 7Z"/><path d="M142 240a14 14 0 0 0 1 4l6 8a14 14 0 0 0 3 1l7 1-11-21 25-54Z" opacity=".2"/><path fill="#f2f2f2" d="m203 113-25-9-32 15 2 102c-10 8-12 20-5 35l-12 93a11 11 0 0 0 15 11l24-11a86 86 0 0 1 59-5Z"/><path fill="#ffb8b8" d="M163 63a32 32 0 0 0 63-8v-1a32 32 0 0 0-63 9Z"/><path fill="#2f2e41" d="M238 51a43 43 0 0 1-21 0 19 19 0 0 0-3-5 20 20 0 0 1-1 5c-6 4-19 2-31 0V19h24c20-1 35 13 32 32ZM177 3c-2-2-5-3-9-3a20 20 0 0 0-8 3 52 52 0 0 0-12 11c-3 3-6 8-4 12 2 3 7 5 11 4s7-3 10-6l10-6h-3a24 24 0 0 0 5-7 8 8 0 0 0 0-8Z"/><path fill="#2f2e41" d="M207 24h-26a26 26 0 0 0-26 27 41 41 0 0 0 37 40l-9-26 17 26h7c-24-19-17-42 0-67Z"/><path fill="#f2f2f2" d="M286 579a63 63 0 0 1-10-1l-4-2 5-44-3-9a2 2 0 0 1 3-3l19 1a2 2 0 0 1 2 3l-3 8 6 44c0 2-9 3-15 3Z"/><path fill="#ccc" d="M275 572h9v1h-9zm0-3h9v1h-9zm0-3h9v1h-9zm0-3h9v1h-9zm0-3h9v1h-9z"/><path fill="#f2f2f2" d="M370 579a63 63 0 0 1-10-1l-5-2 6-44-3-9a2 2 0 0 1 2-3l20 1a2 2 0 0 1 2 3l-3 8 6 44c0 2-9 3-15 3Z"/><path fill="#ccc" d="M359 572h9v1h-9zm0-3h9v1h-9zm0-3h9v1h-9zm0-3h9v1h-9zm0-3h9v1h-9z"/><path fill="#f2f2f2" d="M331 579a63 63 0 0 1-10-1l-5-2 6-44-3-9a2 2 0 0 1 2-3l19 1a2 2 0 0 1 2 3l-2 8 5 44c0 2-9 3-14 3Z"/><path fill="#ccc" d="M320 572h9v1h-9zm0-3h9v1h-9zm0-3h9v1h-9zm0-3h9v1h-9zm0-3h9v1h-9z"/><path fill="#ccc" d="M393 582h-18v-30h18a4 4 0 0 0 0-7H269a4 4 0 0 0 0 7h15v30h-15a4 4 0 0 0 0 7h124a4 4 0 0 0 0-7Zm-102 0v-30h77v30Z"/><path fill="#e6e6e6" d="M233 343v-64a5 5 0 0 1 5-5h48a5 5 0 0 1 5 5v64a5 5 0 0 1-5 5h-48a5 5 0 0 1-5-5Z"/><path fill="#fff" d="M237 324v-42a5 5 0 0 1 4-4h42a5 5 0 0 1 5 4v58a5 5 0 0 1-5 4h-26a21 21 0 0 1-20-20Z"/><path fill="#e6e6e6" d="M243 294a5 5 0 0 1 5-5h29a5 5 0 0 1 0 9h-29a5 5 0 0 1-5-4Zm0 14a5 5 0 0 1 5-5h29a5 5 0 0 1 0 9h-29a5 5 0 0 1-5-4Zm0 14a5 5 0 0 1 5-5h29a5 5 0 0 1 0 9h-29a5 5 0 0 1-5-4Z"/><path fill="#ffb6b6" d="M234 281a10 10 0 0 1-5-15l-35-32-13-48 22-2 7 38 34 41a10 10 0 0 1-10 18Z"/><path fill="#f2f2f2" d="M178 143s-5 0-3 11c2 9 9 59 15 70a8 8 0 0 0-2 9l25-9c2-6-2-7-4-8v-17l-3-45-24-11Z"/></svg>