<svg xmlns="http://www.w3.org/2000/svg" data-name="Layer 1" viewBox="0 0 598 535"><path fill="#e6e6e6" d="M3 120a5 5 0 0 0-3 6l77 274a5 5 0 0 0 6 3l282-79a5 5 0 0 0 4-6L292 44a5 5 0 0 0-6-3Z"/><path fill="#fff" d="m86 390 270-76-73-260-270 75Z"/><path fill="#e6e6e6" d="M49 164c-2 1-3 4-2 7s3 5 5 5l123-35c2 0 2-3 2-6s-4-6-5-5Zm10 35c-2 1-3 4-2 7s3 5 5 5l123-34c2-1 2-4 1-7s-3-5-4-5Zm9 35c-1 1-2 4-1 7s3 5 5 5l123-35c1 0 2-3 1-6s-3-6-5-5Zm10 36c-1 0-2 3-1 6s3 6 5 5l122-34c2-1 3-4 2-7s-3-5-5-5Zm156-157a6 6 0 1 0 3 11l23-6a6 6 0 0 0-3-12Zm10 34a6 6 0 1 0 3 12l23-7a6 6 0 0 0-3-11Zm9 35a6 6 0 1 0 4 11l23-6a6 6 0 0 0-4-11Zm10 35a6 6 0 0 0 3 11l23-6a6 6 0 0 0-3-12Z"/><path fill="#ff0005" d="M272 277a8 8 0 1 0 5 14l29-8a8 8 0 0 0-4-14Z"/><path fill="#e6e6e6" d="m86 308 217-61v2L87 310z"/><path fill="#ffb6b6" d="m520 506-17 4-25-65 26-6 16 67z"/><path fill="#2f2e41" d="M473 535a22 22 0 0 1 16-27l34-8 5 22Z"/><path fill="#ffb6b6" d="M443 518h-18l-8-69h26v69z"/><path fill="#2f2e41" d="M448 535h-58a22 22 0 0 1 23-23h35Zm-31-44-17-207 71-13h1l21 13-8 76 34 119-29 8-34-110-8-34-3 44 2 107Z"/><path fill="#ff0005" d="m397 289 25-187v-1c1 0 9-9 18-9h4c7 0 12 0 19 6 6 7 27 31 27 63l3 132v1l-1-1s-29-18-53-1c-7 5-14 7-20 7-13 0-22-10-22-10Z"/><circle cx="737.3" cy="227.8" r="35.8" fill="#ffb6b6" transform="rotate(-29 230 726)"/><path fill="#ffb6b6" d="M382 329a15 15 0 0 0 0-22l21-48-27 4-15 45a15 15 0 0 0 21 21Z"/><path fill="#ff0005" d="m362 292 6-14a3 3 0 0 1-1-1c-6-11 31-99 34-105-1-3-4-37-2-48 4-13 11-19 23-21 14-1 18 18 18 18v49l-16 57-37 75Z"/><path fill="#2f2e41" d="M441 59c-4 0-8-4-9-8s-3-9-6-11c-6-3-12 1-18 0-7-2-11-8-11-15s2-13 5-19l1 7a15 15 0 0 1 6-13l-1 11c1-6 8-11 14-10v7c7-1 15-2 23-1s15 3 21 8c8 8 11 20 10 31s-5 22-10 33c-2 2-3 5-6 6-3 0-5-2-6-5v-7c1-4 2-8 1-12s-3-8-7-8-8 4-6 7Z"/><path fill="#3f3d56" d="M598 535H340v-2h258v2z"/></svg>