<svg data-name="Layer 1" xmlns="http://www.w3.org/2000/svg"
    xmlns:xlink="http://www.w3.org/1999/xlink" width="1022.7" height="785.81"
    viewBox="0 0 1022.7 785.81">

    <polygon
        points="555.44 661.88 377.25 659.59 377.78 655.02 386.39 579.63 542.88 579.63 554.39 655.02 555.27 660.74 555.44 661.88"
        fill="#d0d2d5" />
    <polygon
        points="555.27 660.74 466.35 660.74 377.25 659.59 377.78 655.02 554.39 655.02 555.27 660.74"
        opacity="0.1" />
    <rect x="347.55" y="656.17" width="236.45" height="5.71" fill="#d0d2d5" />
    <path
        d="M898.24,183.92A14.87,14.87,0,0,0,883.44,169H223.12a14.87,14.87,0,0,0-14.8,14.94V584.19H898.24Z"
        transform="translate(-88.65 -57.09)" fill="#3f3d56" />
    <path
        d="M208.32,580.19v46.88a14.8,14.8,0,0,0,14.8,14.8H883.44a14.8,14.8,0,0,0,14.8-14.8V580.19Z"
        transform="translate(-88.65 -57.09)" fill="#d0d2d5" />
    <rect x="148.23" y="137.01" width="636.23" height="359.81" fill="#fff" />

    <polygon points="483.48 584.77 554.57 656.17 543.66 584.77 483.48 584.77" opacity="0.1" />
    <rect x="147.73" y="137.05" width="636.92" height="21.02" fill="#444053" opacity="0.1" />
    <rect x="368.87" y="140.71" width="191.9" height="12.79" rx="0.58" fill="#DC1A21" opacity="0.3" />
    <path
        d="M643.72,205.52h-.47l-.17-.15a3.89,3.89,0,0,0,.9-2.49,3.78,3.78,0,1,0-3.77,3.81,3.9,3.9,0,0,0,2.49-.91l.17.15v.47l2.93,2.93.87-.88Zm-3.51,0a2.64,2.64,0,1,1,2.63-2.64A2.62,2.62,0,0,1,640.21,205.52Z"
        transform="translate(-88.65 -57.09)" fill="#3f3d56" />
    <circle cx="159.18" cy="147.56" r="3.85" fill="#fa5959" opacity="0.8" />
    <circle cx="169.77" cy="147.56" r="3.85" fill="#fed253" opacity="0.8" />
    <circle cx="180.37" cy="147.56" r="3.85" fill="#8ccf4d" opacity="0.8" />
    <path
        d="M588.7,348.49c-8.73-11.6-21.38-18.92-35.46-18.92s-26.73,7.32-35.46,18.92a38.39,38.39,0,0,0,8.4,12.65,38.28,38.28,0,0,0,62.52-12.65Z"
        transform="translate(-88.65 -57.09)" fill="#DC1A21" />
    <path
        d="M513.17,355.28a9.17,9.17,0,0,1-1.76-1,7.06,7.06,0,0,1-1.94-2.51,7.18,7.18,0,1,0-11.72,1.74,8,8,0,0,0,1.7,1.37,4.94,4.94,0,0,1,1.91,2,14.44,14.44,0,0,0,3.32,4.36,29,29,0,0,0,4.55,3.2A66.31,66.31,0,0,0,505.49,384a27.05,27.05,0,0,0-7.62,1.23,12.29,12.29,0,0,0-3.53,1.76,8.48,8.48,0,0,0-.87-.06,7.19,7.19,0,1,0,6.73,9.72,4.59,4.59,0,0,1,3.71-3,16.75,16.75,0,0,1,1.85-.12,64.4,64.4,0,0,0,8.55,26.67c-4.24,3.29-6.85,6.88-7.95,10.86a3,3,0,0,0-.57.41,6.81,6.81,0,0,0-.84.78A7.18,7.18,0,1,0,517,434.6a4.71,4.71,0,0,1,1.17-5.08c.48-.45,1-.93,1.7-1.46,8.11,9.47,17.76,15.54,29.81,16.26V380.07C533.75,379.2,519.87,368.83,513.17,355.28ZM613,387a7.93,7.93,0,0,0-.87.06,13.56,13.56,0,0,0-3.53-1.76,26.86,26.86,0,0,0-7.62-1.23,67.76,67.76,0,0,0-3.74-19.55,29,29,0,0,0,4.55-3.2,15.58,15.58,0,0,0,3.44-4.57A4.22,4.22,0,0,1,607,355a0,0,0,0,0,0,0,7.18,7.18,0,1,0-10-3.17,6.82,6.82,0,0,1-1.94,2.51,18.85,18.85,0,0,1-1.76,1.29c-6.7,13.54-20.57,23.62-36.48,24.49v64.31c12-.72,21.71-6.82,29.81-16.26.63.5,1.16.95,1.61,1.37a4.86,4.86,0,0,1,1.26,5.23,7.18,7.18,0,1,0,12.08-2.33,6.81,6.81,0,0,0-.84-.78c-.33-.26-.57-.41-.57-.41-1.1-4-3.7-7.57-8-10.86a64.4,64.4,0,0,0,8.55-26.67,15.9,15.9,0,0,1,1.77.12,4.8,4.8,0,0,1,3.85,3,7.18,7.18,0,0,0,13.85-2.18A7.29,7.29,0,0,0,613,387Z"
        transform="translate(-88.65 -57.09)" fill="#DC1A21" />

</svg>