<svg xmlns="http://www.w3.org/2000/svg" data-name="Layer 1" viewBox="0 0 1023 786"><path fill="#d0d2d5" d="m555 662-178-2 1-5 8-75h157l11 75 1 6v1z"/><path d="M555 661h-89l-89-1 1-5h176l1 6z" opacity=".1"/><path fill="#d0d2d5" d="M348 656h236v6H348z"/><path fill="#3f3d56" d="M810 127a15 15 0 0 0-15-15H134a15 15 0 0 0-14 15v400h690Z"/><path fill="#d0d2d5" d="M120 523v47a15 15 0 0 0 14 15h661a15 15 0 0 0 15-15v-47Z"/><path fill="#fff" d="M148 137h636v360H148z"/><path d="m483 585 72 71-11-71h-61z" opacity=".1"/><path fill="#444053" d="M148 137h637v21H148z" opacity=".1"/><rect width="191.9" height="12.8" x="369" y="141" fill="#DC1A21" opacity=".3" rx=".6"/><path fill="#3f3d56" d="M555 148h-1a4 4 0 0 0 1-2 4 4 0 1 0-3 4 4 4 0 0 0 2-1l3 3 1-1Zm-3 0a3 3 0 1 1 2-2 3 3 0 0 1-2 2Z"/><circle cx="159.2" cy="147.6" r="3.9" fill="#fa5959" opacity=".8"/><circle cx="169.8" cy="147.6" r="3.9" fill="#fed253" opacity=".8"/><circle cx="180.4" cy="147.6" r="3.9" fill="#8ccf4d" opacity=".8"/><path fill="#DC1A21" d="M500 291c-9-11-21-19-35-19s-27 8-36 19a38 38 0 0 0 9 13 38 38 0 0 0 62-13Z"/><path fill="#DC1A21" d="M425 298a9 9 0 0 1-2-1 7 7 0 0 1-2-2 7 7 0 1 0-12 1 8 8 0 0 0 2 2 5 5 0 0 1 2 2 14 14 0 0 0 3 4 29 29 0 0 0 5 3 66 66 0 0 0-4 20 27 27 0 0 0-8 1 12 12 0 0 0-3 2 8 8 0 0 0-1 0 7 7 0 1 0 7 10 5 5 0 0 1 3-3 17 17 0 0 1 2-1 64 64 0 0 0 9 27c-5 3-7 7-8 11a3 3 0 0 0-1 0 7 7 0 0 0-1 1 7 7 0 1 0 12 3 5 5 0 0 1 2-6l1-1c8 9 18 16 30 16v-64c-16-1-30-11-36-25Zm99 32a8 8 0 0 0-1 0 14 14 0 0 0-3-2 27 27 0 0 0-8-1 68 68 0 0 0-3-20 29 29 0 0 0 4-3 16 16 0 0 0 4-4 4 4 0 0 1 1-2 7 7 0 1 0-10-3 7 7 0 0 1-2 2 19 19 0 0 1-1 2c-7 13-21 23-37 24v64c12 0 22-6 30-16l2 1a5 5 0 0 1 1 6 7 7 0 1 0 12-3 7 7 0 0 0-1 0v-1l-8-11a64 64 0 0 0 8-26 16 16 0 0 1 2 0 5 5 0 0 1 4 3 7 7 0 0 0 14-2 7 7 0 0 0-8-8Z"/></svg>